<mxfile host="65bd71144e">
    <diagram id="LJTk8KpnsCCUobHYqeiG" name="Page-1">
        <mxGraphModel dx="906" dy="682" grid="1" gridSize="10" guides="1" tooltips="1" connect="1" arrows="1" fold="1" page="1" pageScale="1" pageWidth="827" pageHeight="1169" math="0" shadow="0">
            <root>
                <mxCell id="0"/>
                <mxCell id="1" parent="0"/>
                <mxCell id="2" value="IdrisCooks&lt;br&gt;HomePage" style="whiteSpace=wrap;html=1;aspect=fixed;" vertex="1" parent="1">
                    <mxGeometry x="80" y="90" width="90" height="90" as="geometry"/>
                </mxCell>
                <mxCell id="3" value="Recipes Page" style="whiteSpace=wrap;html=1;aspect=fixed;" vertex="1" parent="1">
                    <mxGeometry x="80" y="200" width="90" height="90" as="geometry"/>
                </mxCell>
                <mxCell id="4" value="Individual&amp;nbsp;&lt;br&gt;Repice ppage" style="whiteSpace=wrap;html=1;aspect=fixed;" vertex="1" parent="1">
                    <mxGeometry x="210" y="200" width="90" height="90" as="geometry"/>
                </mxCell>
                <mxCell id="5" value="Booking Page" style="whiteSpace=wrap;html=1;aspect=fixed;" vertex="1" parent="1">
                    <mxGeometry x="80" y="330" width="90" height="90" as="geometry"/>
                </mxCell>
                <mxCell id="6" value="About Me" style="whiteSpace=wrap;html=1;aspect=fixed;" vertex="1" parent="1">
                    <mxGeometry x="80" y="460" width="90" height="90" as="geometry"/>
                </mxCell>
            </root>
        </mxGraphModel>
    </diagram>
</mxfile>